HIERARCHY
ROOT Hips
{
	OFFSET 0.000000 0.000000 0.000000
	CHANNELS 6 Xposition Yposition Zposition Xrotation Yrotation Zrotation
	JOINT LeftUpLeg_virtual
	{
		OFFSET 0.000000 0.000000 0.000000
		CHANNELS 3 Xrotation Yrotation Zrotation
		JOINT LeftUpLeg
		{
			OFFSET 10.205400 -3.823500 0.155100
			CHANNELS 3 Xrotation Yrotation Zrotation
			JOINT LeftLeg
			{
				OFFSET 0.708757 -12.982077 0.567790
				CHANNELS 3 Xrotation Yrotation Zrotation
				JOINT LeftFoot
				{
					OFFSET -0.708756 -10.717838 -2.184338
					CHANNELS 3 Xrotation Yrotation Zrotation
					JOINT LeftToeBase
					{
						OFFSET 0.108149 -7.191104 7.560241
						CHANNELS 3 Xrotation Yrotation Zrotation
						JOINT LeftToe_End
						{
							OFFSET 0.070230 0.081724 4.490308
							CHANNELS 3 Xrotation Yrotation Zrotation
							End Site
							{
								OFFSET 0 0 0
							}
						}
					}
				}
			}
		}
	}
	JOINT RightUpLeg_virtual
	{
		OFFSET 0.000000 0.000000 0.000000
		CHANNELS 3 Xrotation Yrotation Zrotation
		JOINT RightUpLeg
		{
			OFFSET -10.205400 -3.823500 0.005500
			CHANNELS 3 Xrotation Yrotation Zrotation
			JOINT RightLeg
			{
				OFFSET -0.708756 -12.982134 0.610632
				CHANNELS 3 Xrotation Yrotation Zrotation
				JOINT RightFoot
				{
					OFFSET 0.708754 -10.717769 -1.945823
					CHANNELS 3 Xrotation Yrotation Zrotation
					JOINT RightToeBase
					{
						OFFSET -0.108140 -7.191069 7.372968
						CHANNELS 3 Xrotation Yrotation Zrotation
						JOINT RightToe_End
						{
							OFFSET -0.070227 0.081735 4.479403
							CHANNELS 3 Xrotation Yrotation Zrotation
							End Site
							{
								OFFSET 0 0 0
							}
						}
					}
				}
			}
		}
	}
	JOINT Spine_virtual
	{
		OFFSET 0.000000 0.000000 0.000000
		CHANNELS 3 Xrotation Yrotation Zrotation
		JOINT Spine
		{
			OFFSET 0.000000 6.876099 0.125700
			CHANNELS 3 Xrotation Yrotation Zrotation
			JOINT Spine1
			{
				OFFSET 0.000000 5.730043 0.104720
				CHANNELS 3 Xrotation Yrotation Zrotation
				JOINT Spine1_split
				{
					OFFSET 0.000000 5.730043 0.104720
					CHANNELS 3 Xrotation Yrotation Zrotation
					JOINT Spine2
					{
						OFFSET 0.000000 5.730043 0.104720
						CHANNELS 3 Xrotation Yrotation Zrotation
						JOINT Neck_virtual
						{
							OFFSET 0.000000 0.000000 0.000000
							CHANNELS 3 Xrotation Yrotation Zrotation
							JOINT Neck
							{
								OFFSET 0.000000 10.314075 0.188496
								CHANNELS 3 Xrotation Yrotation Zrotation
								JOINT Head
								{
									OFFSET 0.000000 7.643700 -2.377400
									CHANNELS 3 Xrotation Yrotation Zrotation
									JOINT HeadTop_End
									{
										OFFSET 0.000000 43.788605 -13.619600
										CHANNELS 3 Xrotation Yrotation Zrotation
										End Site
										{
											OFFSET 0 0 0
										}
									}
								}
							}
						}
						JOINT LeftShoulder_virtual
						{
							OFFSET 0.000000 0.000000 0.000000
							CHANNELS 3 Xrotation Yrotation Zrotation
							JOINT LeftShoulder
							{
								OFFSET 2.196100 4.412489 0.087492
								CHANNELS 3 Xrotation Yrotation Zrotation
								JOINT LeftShoulder_split
								{
									OFFSET 2.196100 4.412489 0.087492
									CHANNELS 3 Xrotation Yrotation Zrotation
									JOINT LeftArm
									{
										OFFSET 8.771219 -2.981674 -0.026999
										CHANNELS 3 Xrotation Yrotation Zrotation
										JOINT LeftForeArm
										{
											OFFSET 8.512804 0.000000 -0.000000
											CHANNELS 3 Xrotation Yrotation Zrotation
											JOINT LeftHand
											{
												OFFSET 18.484802 0.000000 -0.000000
												CHANNELS 3 Xrotation Yrotation Zrotation
												End Site
												{
													OFFSET 0 0 0
												}
											}
										}
									}
								}
							}
						}
						JOINT RightShoulder_virtual
						{
							OFFSET 0.000000 0.000000 0.000000
							CHANNELS 3 Xrotation Yrotation Zrotation
							JOINT RightShoulder
							{
								OFFSET -2.196100 4.412496 0.070690
								CHANNELS 3 Xrotation Yrotation Zrotation
								JOINT RightShoulder_split
								{
									OFFSET -2.196100 4.412496 0.070690
									CHANNELS 3 Xrotation Yrotation Zrotation
									JOINT RightArm
									{
										OFFSET -8.771282 -2.981682 -0.094208
										CHANNELS 3 Xrotation Yrotation Zrotation
										JOINT RightForeArm
										{
											OFFSET -8.494598 0.000000 0.000000
											CHANNELS 3 Xrotation Yrotation Zrotation
											JOINT RightHand
											{
												OFFSET -18.483803 0.000000 0.000001
												CHANNELS 3 Xrotation Yrotation Zrotation
												End Site
												{
													OFFSET 0 0 0
												}
											}
										}
									}
								}
							}
						}
					}
				}
			}
		}
	}
}
MOTION
Frames: 7
Frame Time: 0.03333333
5.602958 7.659979 77.286362 0.000000 0.000000 0.000000 -69.635992 2.346599 2.599991 -51.159285 -27.727809 40.963458 97.691813 -26.328002 5.272634 11.763116 -4.660256 -49.114159 8.898260 -2.507302 2.472298 0.000000 0.000000 0.000000 -74.112033 7.957613 6.117423 -71.105411 18.785208 -27.794931 111.176881 18.923825 -4.024170 15.371838 -1.951588 20.514782 31.934143 -6.234785 -17.590618 0.000000 0.000000 0.000000 -76.102261 13.149605 9.002901 4.031844 -8.716288 0.292467 0.465810 0.429888 0.679671 0.161960 -0.015023 -0.072554 0.000000 0.000000 0.000000 -1.609506 3.264510 1.563977 -2.927525 2.255359 11.946669 -17.966282 -31.981521 -6.676691 0.000000 0.000000 0.000000 -4.972510 1.983306 0.200336 -2.801916 -20.035286 -2.344818 -3.687909 3.836847 -2.495917 66.777127 -15.009139 -39.217884 -2.254505 -31.866907 5.708353 0.000000 0.000000 0.000000 -2.904809 1.075492 1.313833 -0.286489 2.366934 12.877552 7.076238 3.753027 -6.232232 74.758797 33.305252 9.476821 -3.317550 15.569826 -2.819206 0.000000 0.000000 0.000000 
5.758909 7.475285 77.287468 0.000000 0.000000 0.000000 -69.573939 2.319891 2.379872 -51.991041 -28.331369 39.909437 97.752814 -25.090179 5.136477 11.714430 -5.168457 -47.102248 8.943643 -2.387355 2.777792 0.000000 0.000000 0.000000 -74.242708 8.042222 6.185216 -69.680292 17.443690 -29.110802 110.437684 18.740028 -4.321818 12.116501 -1.505576 22.872541 32.262586 -6.745353 -18.924125 0.000000 0.000000 0.000000 -76.491773 12.765685 8.724740 4.082950 -8.627348 0.498355 0.704533 0.481064 0.655032 0.131084 0.027741 -0.071906 0.000000 0.000000 0.000000 -1.297720 3.349839 1.526606 -2.119476 2.103479 11.785241 -19.325207 -34.453919 -8.486657 0.000000 0.000000 0.000000 -4.689797 2.066885 0.218305 -2.672237 -19.583967 -2.960522 -2.778756 3.421341 -2.400256 65.284499 -14.933039 -38.360559 -0.921154 -31.021073 6.557355 0.000000 0.000000 0.000000 -2.567477 1.136772 1.270629 -0.244417 1.901471 13.471658 7.022055 3.239048 -6.288494 74.895258 33.388922 9.505684 -3.115907 15.990120 -2.811661 0.000000 0.000000 0.000000 
5.920856 7.302946 77.264908 0.000000 0.000000 0.000000 -69.678509 2.483271 2.241663 -52.952066 -28.715696 38.984316 98.184222 -23.884195 5.012123 11.714841 -5.670035 -44.948088 8.945057 -2.268848 3.064914 0.000000 0.000000 0.000000 -74.266020 8.376739 6.330984 -67.548761 15.458183 -30.342648 109.273301 18.477374 -4.911212 7.789421 -1.348401 25.064904 31.742700 -6.888851 -20.500977 0.000000 0.000000 0.000000 -76.958917 12.517345 8.534161 4.227790 -8.500244 0.565786 1.011815 0.542563 0.654852 0.110360 0.029567 -0.072842 0.000000 0.000000 0.000000 -0.953768 3.433912 1.539050 -0.941399 2.080619 11.405595 -20.848481 -36.989402 -10.260540 0.000000 0.000000 0.000000 -4.400208 2.126154 0.220366 -2.519760 -19.010020 -3.727722 -2.101087 3.190424 -2.244102 64.078472 -14.443058 -37.259450 0.417528 -30.896832 7.312301 0.000000 0.000000 0.000000 -2.228613 1.202222 1.295431 -0.137081 1.390049 13.838039 6.892861 2.748284 -6.195329 74.166340 33.528248 10.164605 -3.064387 16.284884 -2.638377 0.000000 0.000000 0.000000 
6.063016 7.179468 77.224007 0.000000 0.000000 0.000000 -69.888777 2.830758 2.175138 -53.990562 -28.963933 38.107794 98.767343 -22.848376 4.937538 11.837574 -6.382986 -42.872028 8.864476 -2.171584 3.329086 0.000000 0.000000 0.000000 -74.224731 9.003651 6.546167 -65.113279 12.957749 -31.406603 107.706517 18.174850 -5.600204 3.547847 -1.404473 27.115395 30.531509 -6.753619 -22.039694 0.000000 0.000000 0.000000 -77.378079 12.401660 8.340066 4.418726 -8.357621 0.537416 1.413409 0.623895 0.687696 0.106430 0.009069 -0.067897 0.000000 0.000000 0.000000 -0.572456 3.518976 1.603054 0.511943 2.150943 10.953133 -22.590410 -39.424070 -11.948986 0.000000 0.000000 0.000000 -4.080397 2.182373 0.212761 -2.324391 -18.197425 -4.579718 -1.483214 2.754533 -2.030994 63.239711 -13.595575 -35.809657 1.763879 -31.343967 8.001983 0.000000 0.000000 0.000000 -1.854018 1.280045 1.381324 -0.010103 1.002218 14.043344 6.628489 2.481419 -5.990787 72.699140 33.726815 11.211195 -3.150235 16.500882 -2.302420 0.000000 0.000000 0.000000 
6.174202 7.120794 77.125900 0.000000 0.000000 0.000000 -70.136993 3.256221 2.041656 -55.162179 -29.109167 37.134434 99.253597 -22.017414 4.940280 12.068884 -7.351611 -40.915804 8.774840 -2.097830 3.551637 0.000000 0.000000 0.000000 -74.310833 9.772098 6.695418 -62.666432 10.131695 -32.382033 105.816965 18.015198 -6.296039 0.239456 -1.442155 29.060532 29.291164 -6.513109 -23.145674 0.000000 0.000000 0.000000 -77.637101 12.313084 7.983434 4.585523 -8.211938 0.494328 1.899655 0.727244 0.756646 0.100937 -0.025649 -0.064949 0.000000 0.000000 0.000000 -0.158529 3.599293 1.697842 2.057564 2.254134 10.510699 -24.529081 -41.654568 -13.512851 0.000000 0.000000 0.000000 -3.703312 2.246983 0.193653 -2.071199 -17.040526 -5.434996 -0.866221 2.018790 -1.959901 62.716368 -12.553847 -34.021271 3.118225 -32.158785 8.672499 0.000000 0.000000 0.000000 -1.413059 1.377549 1.503118 0.085702 0.801049 14.107828 6.343305 2.436346 -5.731273 70.601801 34.030793 12.461073 -3.376477 16.681595 -1.799087 0.000000 0.000000 0.000000 
6.280874 7.118740 76.997963 0.000000 0.000000 0.000000 -70.272634 3.653831 1.720612 -56.594056 -29.157938 35.913534 99.549427 -21.333848 5.011080 12.404680 -8.540612 -39.084023 8.739716 -2.036830 3.696148 0.000000 0.000000 0.000000 -74.217915 10.654392 6.720017 -60.338581 7.222899 -33.292087 103.514836 18.029357 -6.888649 -1.962339 -1.395040 30.686575 28.635561 -6.361303 -23.602226 0.000000 0.000000 0.000000 -77.648111 12.166727 7.377317 4.719679 -8.058788 0.527777 2.447647 0.832562 0.854054 0.089557 -0.039743 -0.063763 0.000000 0.000000 0.000000 0.286770 3.670238 1.803112 3.517389 2.359383 10.097150 -26.597288 -43.595957 -14.932844 0.000000 0.000000 0.000000 -3.258731 2.313472 0.163950 -1.760874 -15.541115 -6.260320 -0.247772 1.019908 -2.054031 62.357476 -11.520119 -31.974636 4.515377 -33.021588 9.331287 0.000000 0.000000 0.000000 -0.887753 1.488212 1.631925 0.110931 0.811250 14.031106 5.909044 2.404687 -5.447991 67.966044 34.341556 13.867503 -3.720921 16.910758 -1.168791 0.000000 0.000000 0.000000 
6.401449 7.139580 76.879456 0.000000 0.000000 0.000000 -70.294319 3.934554 1.188402 -58.266377 -29.138936 34.429146 99.622701 -20.663414 5.053677 12.897332 -9.814570 -37.227529 8.718831 -1.974413 3.808273 0.000000 0.000000 0.000000 -74.058491 11.297409 6.413736 -58.220130 4.306687 -34.085509 100.785582 18.014455 -7.176138 -3.251733 -1.398843 31.522218 28.862464 -6.422826 -23.406835 0.000000 0.000000 0.000000 -77.361250 11.904204 6.548815 4.835914 -7.899758 0.677533 3.048547 0.921737 0.953906 0.071264 -0.023000 -0.069749 0.000000 0.000000 0.000000 0.801290 3.721055 1.892017 4.749178 2.396555 9.708177 -28.614109 -45.185974 -16.197001 0.000000 0.000000 0.000000 -2.734799 2.367629 0.112237 -1.389974 -13.747245 -7.015631 0.309447 -0.084642 -2.308366 61.984943 -10.627395 -29.711726 5.919427 -33.562009 9.918732 0.000000 0.000000 0.000000 -0.289264 1.598168 1.741565 0.040453 1.054057 13.814774 5.315185 2.200604 -5.261086 64.770575 34.565713 15.519604 -4.158402 17.288387 -0.446629 0.000000 0.000000 0.000000 
